<?xml version="1.0" standalone="no"?>
<svg xmlns="http://www.w3.org/2000/svg" viewBox="0 0 147 71" width="147" height="71"><g fill="#91a16a" color="#91a16a" transform="translate(51.448 0) scale(0.44) "><svg width="100.0" height="100.0" x="0.0" y="0.0" viewBox="0 0 100 100"><g><g><path fill="currentColor" d="M19.847,63.395c0.138,0.103,0.28,0.199,0.424,0.293c0.062,0.041,0.127,0.082,0.191,0.121    c0.143,0.09,0.288,0.178,0.437,0.261c0.062,0.033,0.125,0.064,0.189,0.099c0.494,0.255,1.017,0.469,1.572,0.631    c0.069,0.02,0.135,0.045,0.205,0.063c0.001-0.002,0.002-0.004,0.003-0.005c1.792,0.477,3.896,0.422,6.37-0.476    c1.773-0.643,2.754-1.986,3.286-3.444c0.006-0.015,0.01-0.029,0.016-0.044c0.121-0.335,0.219-0.677,0.295-1.018    c0.416,0.066,0.856,0.115,1.346,0.115c0.658,0,1.39-0.083,2.178-0.257c0.105,0.902,0.077,2.593,0.103,4.138    c0.011,0.66,0.606,1.013,1.24,1.022c0.063,0.002,0.124-0.002,0.184-0.012c0.548-0.084,1.036-0.578,1.071-1.173    c0.438-7.402-1.415-8.561-1.719-8.817c-0.304-0.259-0.712-0.365-1.093-0.306c-0.236,0.036-0.462,0.135-0.646,0.3    c-0.48,0.432-0.437,1.114-0.121,1.688c0.075,0.136,0.194,0.302,0.408,0.847c-1.103,0.243-1.946,0.217-2.677,0.097    c0.003-0.193,0.003-0.378,0-0.553c0-0.004,0-0.007,0-0.011c-0.008-0.398-0.031-0.741-0.055-1.005    c-0.002-0.011-0.002-0.018-0.003-0.027c-0.016-0.169-0.031-0.306-0.044-0.399c-0.001-0.006-0.001-0.01-0.002-0.019    c-0.005-0.036-0.009-0.066-0.013-0.088c-0.001-0.009-0.002-0.011-0.002-0.019c-0.002-0.017-0.005-0.029-0.005-0.029    s-0.002-0.014-0.003-0.031c-0.001-0.008-0.001-0.009-0.003-0.018c-0.002-0.028-0.008-0.064-0.018-0.113    c-0.001-0.007-0.002-0.013-0.003-0.018c-0.008-0.047-0.02-0.102-0.034-0.165c-0.002-0.008-0.004-0.017-0.006-0.024    c-0.017-0.067-0.037-0.142-0.061-0.223c-0.005-0.017-0.01-0.032-0.015-0.048c-0.054-0.17-0.127-0.364-0.228-0.572    c-0.009-0.019-0.018-0.036-0.027-0.056c-0.052-0.104-0.109-0.209-0.175-0.317c-0.009-0.015-0.02-0.031-0.029-0.046    c-0.064-0.102-0.134-0.204-0.211-0.308c-0.01-0.015-0.019-0.028-0.029-0.041c-0.084-0.109-0.178-0.218-0.278-0.325    c-0.02-0.021-0.041-0.041-0.061-0.063c-0.106-0.109-0.221-0.218-0.348-0.321c-0.003-0.003-0.008-0.006-0.011-0.01    c-0.123-0.1-0.258-0.196-0.401-0.289c-0.029-0.019-0.058-0.038-0.088-0.058c-0.147-0.092-0.305-0.179-0.475-0.26    c-0.031-0.014-0.063-0.028-0.095-0.043c-0.16-0.072-0.33-0.141-0.511-0.202c-0.028-0.011-0.056-0.021-0.085-0.03    c-0.198-0.064-0.411-0.121-0.635-0.17c-0.051-0.01-0.103-0.021-0.155-0.029c-0.233-0.046-0.476-0.086-0.737-0.113    c-0.021-0.002-0.043-0.002-0.064-0.003c-0.247-0.022-0.512-0.033-0.785-0.036c-0.039-0.002-0.072-0.006-0.111-0.006    c-0.024,0-0.054,0.004-0.079,0.004c-0.289,0.002-0.591,0.014-0.91,0.039c-0.063,0.007-0.129,0.015-0.193,0.02    c-0.293,0.029-0.6,0.066-0.92,0.117c-0.06,0.009-0.116,0.016-0.178,0.026c-0.358,0.06-0.736,0.137-1.127,0.226    c-0.091,0.021-0.184,0.044-0.277,0.065c-0.411,0.1-0.834,0.21-1.282,0.344c-0.307,0.092-0.614,0.167-0.918,0.232    c-0.104,0.022-0.205,0.037-0.309,0.058c-0.2,0.038-0.401,0.074-0.598,0.103c-0.118,0.016-0.234,0.029-0.352,0.042    c-0.181,0.021-0.361,0.039-0.539,0.051c-0.118,0.01-0.235,0.018-0.351,0.022c-0.176,0.011-0.349,0.015-0.521,0.017    c-0.125,0.002-0.25,0.005-0.373,0.004c-0.056-0.001-0.112-0.002-0.167-0.003c-0.194-0.005-0.385-0.011-0.571-0.022    c-0.029-0.002-0.059-0.003-0.088-0.004c-0.213-0.015-0.421-0.033-0.623-0.054c-0.045-0.004-0.086-0.009-0.129-0.013    c-0.165-0.02-0.325-0.039-0.48-0.061c-0.041-0.006-0.082-0.012-0.121-0.018c-0.184-0.027-0.363-0.056-0.532-0.087    c-0.019-0.002-0.035-0.007-0.053-0.01c-0.151-0.028-0.296-0.057-0.434-0.085c-0.037-0.009-0.075-0.017-0.11-0.022    c-0.137-0.031-0.269-0.062-0.391-0.091c-0.008-0.002-0.017-0.006-0.025-0.007c-0.131-0.032-0.251-0.064-0.361-0.094    c-0.027-0.008-0.05-0.015-0.075-0.021c-0.085-0.022-0.164-0.047-0.235-0.067c-0.018-0.005-0.037-0.01-0.054-0.016    c-0.08-0.024-0.15-0.047-0.208-0.066c-0.013-0.004-0.022-0.006-0.035-0.01c-0.042-0.015-0.078-0.026-0.104-0.036    c-0.01-0.004-0.023-0.008-0.031-0.011c-0.015-0.006-0.033-0.012-0.033-0.012s0.002,0.014,0.007,0.037    c0.003,0.01,0.004,0.021,0.007,0.035c0.005,0.021,0.009,0.045,0.016,0.075c0.005,0.026,0.011,0.053,0.018,0.086    c0.006,0.027,0.012,0.057,0.02,0.09c0.009,0.043,0.019,0.085,0.03,0.135c0.007,0.029,0.015,0.062,0.022,0.094    c0.028,0.121,0.062,0.256,0.101,0.411c0.006,0.021,0.01,0.04,0.017,0.062c0.021,0.081,0.043,0.167,0.067,0.256    c0.011,0.038,0.021,0.075,0.031,0.115c0.026,0.094,0.053,0.191,0.082,0.294c0.011,0.035,0.021,0.071,0.032,0.109    c0.033,0.113,0.066,0.226,0.104,0.345c0.002,0.01,0.005,0.019,0.008,0.028c0.125,0.406,0.274,0.855,0.448,1.333    c0.009,0.026,0.019,0.051,0.029,0.077c0.054,0.148,0.111,0.299,0.171,0.452c0.012,0.03,0.023,0.06,0.035,0.09    c0.264,0.672,0.577,1.384,0.943,2.102c0.01,0.02,0.02,0.038,0.029,0.058c0.086,0.167,0.175,0.335,0.268,0.501    c0.017,0.032,0.035,0.062,0.052,0.094c0.095,0.171,0.192,0.34,0.293,0.51c0.001,0.002,0.003,0.004,0.004,0.006    c0.322,0.539,0.677,1.068,1.065,1.577c0.019,0.026,0.037,0.05,0.056,0.074c0.116,0.148,0.235,0.296,0.356,0.441    c0.033,0.038,0.065,0.076,0.098,0.114c0.123,0.144,0.249,0.286,0.378,0.424c0.021,0.022,0.043,0.044,0.065,0.066    c0.414,0.438,0.862,0.843,1.342,1.208C19.757,63.325,19.801,63.362,19.847,63.395z"></path><path fill="currentColor" d="M44.517,58.801c-1.184,0.039-2.608,1.454-2.432,2.961c0.218,1.879-0.135,3.254-0.709,3.841    c1.476,0.14,2.29-1.334,2.298-1.346c0.372-0.77,1.142-1.258,1.852-0.771c0.472,0.322,1.608,1.158,0.375,2.616    c-0.189,0.225-2.681,3.171-7.739,2.843c-4.222-0.275-4.426-2.037-4.78-2.487c-0.783,0.899-1.802,1.273-3.121,1.751    c-1.667,0.604-3.445,0.661-4.987,0.661c-1.247,0-3.464-0.571-4.411-1.307c-4.492,5.143,0.263,15.409,2.125,18.589    c4.623,7.889,10.197,9.011,13.23,7.403c1.749-0.926,2.354-0.217,3.694,0.092c12.241,2.814,17.499-12.395,18.147-20.596    C58.369,69.088,56.775,57.188,44.517,58.801z"></path></g><g><path fill="none" d="M72.604,15.464c0.016-0.595,0.031-1,0.053-1.588c-1.078,0.129-2.861,0.302-3.572,0.302    c-0.582,0-1.896-0.119-2.945-0.231c0.17,4.755,0.197,7.595-0.061,12.365c-0.021,0.385-0.041,1.396-0.062,1.789    c2.6,0,4.162,0,6.764,0c-0.125-1.865-0.182-4.36-0.211-6.222C72.521,19.117,72.537,18.224,72.604,15.464z"></path><path fill="currentColor" d="M65.514,13.876c0.188,0.022,0.404,0.046,0.625,0.071c-0.002-0.024-0.002-0.044-0.004-0.069L65.514,13.876z    "></path><g><path fill="none" d="M65.514,13.876c0.188,0.022,0.404,0.046,0.625,0.071c-0.002-0.024-0.002-0.044-0.004-0.069L65.514,13.876z"></path><path fill="none" d="M62.062,72.267c-0.053,0.647-0.127,1.331-0.227,2.043h18.533V52.102H58.518     c-0.189-0.251-0.059,5.094-0.096,7.74C61.732,63.824,62.279,69.507,62.062,72.267z"></path><path fill="none" d="M72.604,15.464c0.016-0.595,0.031-1,0.053-1.588c-1.078,0.129-2.861,0.302-3.572,0.302     c-0.582,0-1.896-0.119-2.945-0.231c0.17,4.755,0.197,7.595-0.061,12.365c-0.021,0.385-0.041,1.396-0.062,1.789     c2.6,0,4.162,0,6.764,0c-0.125-1.865-0.182-4.36-0.211-6.222C72.521,19.117,72.537,18.224,72.604,15.464z"></path><path fill="currentColor" d="M76.426,35.443c-0.479-0.321-0.713-1.357-0.865-1.956c-0.324-1.282-0.479-2.61-0.607-3.926     c-0.322-3.27-0.391-6.566-0.408-9.85c-0.01-2.436,0.02-3.004,0.09-5.438c0.008-0.206,0.014-0.416,0.023-0.624h-0.002     c0.014-0.042,0.041-0.116,0.092-0.22c0.184-0.371,0.365-0.751,0.506-1.145c0.355-0.99,1.076-1.912,0.734-2.922     c-0.143-0.422-1.143-3.048-1.662-3.445C73.998,5.666,70.828,4.998,69.1,5c-1.732-0.002-4.305,0.666-4.633,0.918     c-0.518,0.396-1.518,3.022-1.66,3.445c-0.346,1.011,0.375,1.932,0.734,2.922c0.139,0.394,0.32,0.773,0.506,1.145     c0.053,0.104,0.078,0.179,0.092,0.22c0.004,0.11,0.008,0.22,0.012,0.335c0.027,0.883,0.049,1.767,0.066,2.651     c0.055,3.042,0.055,4.218-0.039,7.26c-0.092,3.017-0.207,6.098-0.822,9.063c-0.16,0.765-0.336,1.765-0.861,2.369     c-0.344,0.393-1.104,0.787-1.578,1.174c-0.928,0.752-1.742,1.638-2.469,2.58c-1.449,1.867-2.441,2.801-2.654,6.41v12.009     c1.027,0.664,1.896,1.46,2.629,2.341c0.037-2.646-0.094-7.991,0.096-7.74h21.852V74.31H61.836     c-0.639,4.578-2.295,10.295-5.174,14.934c0.02,0.06,0.041,0.12,0.068,0.179c0.32,0.718,0.908,1.991,1.471,2.546     c0.594,0.578,1.256,0.787,2.02,1.052c1.729,0.6,3.488,0.956,5.311,1.119c4.312,0.383,9.344,0.192,13.445-1.259     c0.732-0.256,1.188-0.486,1.752-1.045c0.598-0.585,1.16-1.386,1.48-2.145C82.748,88.394,83,87.145,83,87.002V44.891     C82.521,39.786,79.641,37.487,76.426,35.443z M66.016,28.101c0.021-0.393,0.041-1.403,0.062-1.789     c0.258-4.771,0.23-7.61,0.061-12.365c-0.221-0.024-0.438-0.048-0.625-0.071l0.621,0.002c0.002,0.024,0.002,0.044,0.004,0.069     c1.049,0.112,2.363,0.231,2.945,0.231c0.711,0,2.494-0.173,3.572-0.302c-0.021,0.588-0.037,0.993-0.053,1.588     c-0.066,2.76-0.082,3.653-0.035,6.415c0.029,1.862,0.086,4.357,0.211,6.222C70.178,28.101,68.615,28.101,66.016,28.101z"></path></g><polygon fill="currentColor" points="72.656,13.876 72.656,13.876 72.656,13.876   "></polygon></g></g></svg></g><path fill="#8D2828" fill-rule="nonzero" d="M7.99 1.23L7.99 1.23Q9.38 1.23 10.52 1.47Q11.66 1.71 12.48 2.26Q13.30 2.81 13.75 3.71Q14.19 4.62 14.19 5.94L14.19 5.94Q14.19 6.23 14.13 6.60Q14.06 6.96 13.91 7.35Q13.76 7.73 13.52 8.10Q13.28 8.47 12.93 8.79Q12.57 9.11 12.10 9.33Q11.63 9.55 11.02 9.63L11.02 9.63Q12.01 9.74 12.70 10.07Q13.38 10.39 13.81 10.91Q14.24 11.43 14.43 12.09Q14.63 12.76 14.63 13.55L14.63 13.55Q14.63 14.94 14.08 15.85Q13.54 16.76 12.57 17.29Q11.61 17.81 10.32 18.02Q9.02 18.22 7.54 18.22L7.54 18.22Q6.34 18.22 5.30 18.17Q4.27 18.12 3.18 17.99L3.18 17.99Q2.65 17.93 2.46 17.71Q2.26 17.48 2.26 16.98L2.26 16.98L2.26 3.11L0 3.28L0 2.24Q0.54 2.02 1.41 1.83Q2.29 1.65 3.36 1.52Q4.43 1.38 5.62 1.31Q6.81 1.24 7.99 1.23ZM8.38 10.52L8.38 10.52Q8.02 10.50 7.68 10.50Q7.34 10.50 7.01 10.50L7.01 10.50Q6.60 10.50 6.25 10.51Q5.91 10.51 5.65 10.52L5.65 10.52Q5.34 10.54 5.10 10.55L5.10 10.55L5.10 16.34Q5.41 16.44 5.84 16.52L5.84 16.52Q6.20 16.59 6.71 16.65Q7.23 16.71 7.90 16.71L7.90 16.71Q9.14 16.71 9.91 16.44Q10.69 16.16 11.12 15.73Q11.54 15.29 11.69 14.77Q11.84 14.24 11.84 13.73L11.84 13.73Q11.84 13.04 11.65 12.47Q11.47 11.91 11.07 11.49Q10.66 11.07 10.00 10.83Q9.34 10.58 8.38 10.52ZM7.97 2.85L7.97 2.85Q7.36 2.85 6.83 2.87Q6.30 2.88 5.92 2.91Q5.53 2.93 5.31 2.95Q5.10 2.98 5.10 2.99L5.10 2.99L5.10 8.87Q5.66 8.98 6.11 9.02Q6.56 9.06 6.94 9.06L6.94 9.06Q8.20 9.06 9.07 8.81Q9.94 8.55 10.48 8.12Q11.02 7.69 11.26 7.11Q11.50 6.54 11.50 5.89L11.50 5.89Q11.50 5.19 11.30 4.63Q11.10 4.07 10.68 3.67Q10.25 3.28 9.59 3.07Q8.92 2.86 7.97 2.85ZM30.46 12.04L30.46 12.04Q30.46 13.46 29.96 14.64Q29.46 15.81 28.59 16.64Q27.71 17.47 26.54 17.92Q25.37 18.38 24.04 18.38L24.04 18.38Q22.68 18.38 21.50 17.92Q20.32 17.46 19.45 16.63Q18.59 15.80 18.08 14.63Q17.58 13.46 17.58 12.04L17.58 12.04Q17.58 10.59 18.08 9.42Q18.59 8.24 19.45 7.40Q20.32 6.56 21.50 6.11Q22.68 5.65 24.04 5.65L24.04 5.65Q25.38 5.65 26.55 6.11Q27.73 6.56 28.59 7.40Q29.46 8.24 29.96 9.42Q30.46 10.59 30.46 12.04ZM20.47 12.01L20.47 12.01Q20.47 13.01 20.63 13.93Q20.78 14.86 21.18 15.57Q21.59 16.28 22.27 16.70Q22.96 17.12 24.04 17.12L24.04 17.12Q25.10 17.12 25.79 16.70Q26.47 16.28 26.87 15.57Q27.26 14.86 27.41 13.93Q27.56 13.01 27.56 12.01L27.56 12.01Q27.56 11.02 27.41 10.09Q27.26 9.16 26.87 8.46Q26.47 7.75 25.79 7.32Q25.10 6.90 24.04 6.90L24.04 6.90Q22.96 6.90 22.27 7.32Q21.59 7.75 21.18 8.46Q20.78 9.16 20.63 10.09Q20.47 11.02 20.47 12.01ZM34.66 17.10L34.66 7.18L32.60 7.18L32.60 6.30Q32.85 6.20 33.29 6.11Q33.74 6.01 34.27 5.95Q34.80 5.89 35.36 5.86Q35.92 5.82 36.38 5.82L36.38 5.82Q36.62 5.82 36.81 5.84Q37.00 5.85 37.13 5.91Q37.25 5.96 37.32 6.09Q37.38 6.21 37.38 6.45L37.38 6.45L37.38 7.02Q37.56 6.96 38.03 6.74Q38.51 6.52 39.19 6.28Q39.87 6.04 40.68 5.84Q41.48 5.65 42.33 5.65L42.33 5.65Q43.35 5.65 43.98 5.93Q44.61 6.21 44.96 6.71Q45.32 7.21 45.44 7.89Q45.56 8.57 45.56 9.38L45.56 9.38L45.56 16.84L47.60 16.84L47.60 17.72Q47.40 17.82 47.06 17.92Q46.71 18.01 46.29 18.08Q45.87 18.15 45.41 18.19Q44.95 18.22 44.53 18.22L44.53 18.22Q44.17 18.22 43.86 18.18Q43.56 18.14 43.34 18.02Q43.11 17.89 42.98 17.68Q42.86 17.46 42.86 17.10L42.86 17.10L42.86 9.61Q42.86 9.01 42.79 8.59Q42.73 8.17 42.54 7.90Q42.36 7.63 42.04 7.51Q41.72 7.38 41.21 7.38L41.21 7.38Q40.89 7.38 40.49 7.43Q40.10 7.48 39.69 7.55Q39.27 7.63 38.88 7.71Q38.48 7.79 38.16 7.87Q37.84 7.95 37.63 8.00Q37.42 8.06 37.38 8.07L37.38 8.07L37.38 14.48Q37.38 15.21 37.42 15.76Q37.45 16.31 37.51 16.72Q37.56 17.13 37.62 17.41Q37.68 17.68 37.71 17.85L37.71 17.85Q37.55 17.94 37.34 18.01Q37.14 18.07 36.91 18.12Q36.68 18.18 36.45 18.20Q36.22 18.22 36.04 18.22L36.04 18.22Q35.73 18.22 35.48 18.17Q35.24 18.12 35.05 17.99Q34.86 17.86 34.76 17.64Q34.66 17.43 34.66 17.10L34.66 17.10ZM68.21 9.28L68.21 14.48Q68.21 15.21 68.26 15.76Q68.30 16.31 68.35 16.72Q68.40 17.13 68.46 17.41Q68.52 17.68 68.55 17.85L68.55 17.85Q68.39 17.94 68.18 18.01Q67.97 18.07 67.74 18.12Q67.51 18.18 67.29 18.20Q67.07 18.22 66.88 18.22L66.88 18.22Q66.57 18.22 66.33 18.17Q66.08 18.12 65.89 17.99Q65.71 17.86 65.61 17.64Q65.51 17.43 65.51 17.10L65.51 17.10L65.51 9.45Q65.51 8.96 65.47 8.59Q65.44 8.21 65.30 7.95Q65.17 7.69 64.89 7.55Q64.62 7.41 64.14 7.41L64.14 7.41Q63.82 7.41 63.42 7.45Q63.02 7.50 62.61 7.58Q62.20 7.65 61.82 7.74Q61.43 7.83 61.13 7.90Q60.82 7.98 60.64 8.03Q60.46 8.07 60.47 8.07L60.47 8.07L60.47 14.48Q60.47 15.21 60.50 15.76Q60.54 16.31 60.59 16.72Q60.64 17.13 60.70 17.41Q60.76 17.68 60.80 17.85L60.80 17.85Q60.63 17.94 60.43 18.01Q60.22 18.07 59.99 18.12Q59.77 18.18 59.54 18.20Q59.31 18.22 59.12 18.22L59.12 18.22Q58.82 18.22 58.57 18.17Q58.32 18.12 58.14 17.99Q57.95 17.86 57.85 17.64Q57.75 17.43 57.75 17.10L57.75 17.10L57.75 7.18L55.69 7.18L55.69 6.30Q55.93 6.20 56.38 6.11Q56.82 6.01 57.36 5.95Q57.89 5.89 58.45 5.86Q59.00 5.82 59.46 5.82L59.46 5.82Q59.71 5.82 59.89 5.84Q60.08 5.85 60.21 5.91Q60.34 5.96 60.40 6.09Q60.47 6.21 60.47 6.45L60.47 6.45L60.47 7.02Q60.47 7.03 60.67 6.93Q60.88 6.83 61.24 6.68Q61.59 6.53 62.07 6.35Q62.54 6.18 63.08 6.02Q63.61 5.86 64.18 5.75Q64.75 5.65 65.29 5.65L65.29 5.65Q65.70 5.65 66.09 5.71Q66.49 5.78 66.84 5.93Q67.18 6.08 67.46 6.35Q67.73 6.62 67.89 7.02L67.89 7.02Q67.89 7.03 68.10 6.93Q68.31 6.83 68.67 6.68Q69.04 6.53 69.52 6.35Q70.00 6.18 70.54 6.02Q71.09 5.86 71.65 5.75Q72.22 5.65 72.77 5.65L72.77 5.65Q73.80 5.65 74.44 5.91Q75.07 6.18 75.41 6.66Q75.75 7.14 75.86 7.80Q75.97 8.47 75.97 9.28L75.97 9.28L75.97 16.84L78.01 16.84L78.01 17.72Q77.81 17.82 77.47 17.92Q77.12 18.01 76.70 18.08Q76.28 18.15 75.82 18.19Q75.36 18.22 74.94 18.22L74.94 18.22Q74.58 18.22 74.27 18.18Q73.97 18.14 73.74 18.02Q73.51 17.89 73.38 17.68Q73.25 17.46 73.25 17.10L73.25 17.10L73.25 9.45Q73.25 8.96 73.22 8.59Q73.18 8.21 73.05 7.95Q72.91 7.69 72.64 7.55Q72.36 7.41 71.89 7.41L71.89 7.41Q71.59 7.41 71.06 7.48Q70.54 7.56 69.97 7.66Q69.40 7.76 68.89 7.86Q68.39 7.97 68.14 8.03L68.14 8.03Q68.21 8.61 68.21 9.28L68.21 9.28ZM87.87 17.10L87.87 16.98Q87.87 16.98 87.71 17.08Q87.55 17.18 87.28 17.33Q87 17.48 86.63 17.67Q86.26 17.85 85.82 18.01Q85.38 18.16 84.91 18.27Q84.43 18.38 83.95 18.38L83.95 18.38Q83.19 18.38 82.50 18.17Q81.81 17.96 81.29 17.53Q80.77 17.10 80.46 16.44Q80.14 15.79 80.14 14.87L80.14 14.87Q80.14 13.86 80.60 13.16Q81.05 12.46 81.85 12.02Q82.65 11.58 83.77 11.38Q84.88 11.19 86.21 11.19L86.21 11.19L87.87 11.19L87.87 10.31Q87.87 9.63 87.81 9.01Q87.76 8.38 87.57 7.91Q87.38 7.44 87.01 7.16Q86.64 6.88 86.02 6.88L86.02 6.88Q85.42 6.88 84.82 7.10Q84.22 7.31 83.65 7.64Q83.07 7.97 82.55 8.36Q82.02 8.75 81.59 9.11L81.59 9.11L80.63 7.82Q80.45 7.61 80.45 7.38L80.45 7.38Q80.45 7.00 80.94 6.68Q81.42 6.36 82.15 6.13Q82.89 5.91 83.73 5.78Q84.57 5.65 85.30 5.65L85.30 5.65Q86.38 5.65 87.34 5.91Q88.30 6.16 89.02 6.72Q89.74 7.28 90.16 8.16Q90.59 9.05 90.59 10.31L90.59 10.31L90.59 16.84L92.63 16.84L92.63 17.72Q92.43 17.82 92.08 17.92Q91.73 18.01 91.31 18.08Q90.89 18.15 90.43 18.19Q89.96 18.22 89.54 18.22L89.54 18.22Q89.26 18.22 88.97 18.19Q88.68 18.15 88.44 18.03Q88.20 17.91 88.04 17.69Q87.88 17.47 87.87 17.10L87.87 17.10ZM84.77 16.64L84.77 16.64Q85.18 16.64 85.72 16.53Q86.25 16.42 86.73 16.29L86.73 16.29Q87.29 16.14 87.87 15.93L87.87 15.93L87.87 12.63L85.90 12.63Q85.45 12.63 84.92 12.71Q84.39 12.80 83.92 13.03Q83.46 13.25 83.14 13.66Q82.83 14.07 82.83 14.74L82.83 14.74Q82.83 15.16 82.96 15.51Q83.09 15.86 83.33 16.11Q83.58 16.36 83.94 16.50Q84.30 16.64 84.77 16.64ZM93.80 6.33L93.80 6.33Q94.04 6.22 94.49 6.13Q94.93 6.04 95.47 5.98Q96 5.92 96.56 5.88Q97.11 5.85 97.57 5.85L97.57 5.85Q97.82 5.85 98.00 5.86Q98.19 5.87 98.32 5.93Q98.45 5.99 98.51 6.11Q98.58 6.23 98.58 6.47L98.58 6.47L98.58 9.28L100.07 7.16Q100.63 6.39 101.31 6.02Q102 5.65 102.87 5.65L102.87 5.65Q103.02 5.65 103.26 5.67Q103.50 5.68 103.73 5.75Q103.96 5.82 104.12 5.95Q104.29 6.08 104.29 6.30L104.29 6.30Q104.29 6.36 104.29 6.40Q104.29 6.43 104.26 6.49L104.26 6.49L103.76 8.14Q103.31 8.00 102.96 7.95Q102.60 7.89 102.29 7.89L102.29 7.89Q101.66 7.89 101.09 8.24Q100.51 8.60 100.03 9.09Q99.55 9.57 99.18 10.07Q98.81 10.57 98.58 10.84L98.58 10.84L98.58 14.48Q98.58 15.21 98.61 15.76Q98.65 16.31 98.70 16.72Q98.75 17.13 98.81 17.41Q98.87 17.68 98.91 17.85L98.91 17.85Q98.74 17.94 98.54 18.01Q98.33 18.07 98.10 18.12Q97.88 18.18 97.65 18.20Q97.42 18.22 97.23 18.22L97.23 18.22Q96.93 18.22 96.68 18.17Q96.43 18.12 96.25 17.99Q96.06 17.86 95.96 17.64Q95.86 17.43 95.86 17.10L95.86 17.10L95.86 7.21L93.80 7.21L93.80 6.33ZM116.21 6.95L115.38 8.51Q115.00 8.29 114.53 8.03Q114.06 7.77 113.55 7.55Q113.04 7.34 112.51 7.19Q111.98 7.04 111.47 7.04L111.47 7.04Q110.67 7.04 110.12 7.44Q109.56 7.83 109.20 8.46Q108.84 9.08 108.68 9.84Q108.52 10.61 108.52 11.34L108.52 11.34Q108.52 12.49 108.82 13.50Q109.13 14.51 109.76 15.26Q110.39 16.01 111.35 16.44Q112.31 16.86 113.63 16.86L113.63 16.86Q114.35 16.86 115.12 16.73Q115.89 16.61 116.70 16.36L116.70 16.36L117.08 17.14Q116.60 17.47 116.04 17.71Q115.48 17.94 114.88 18.09Q114.28 18.23 113.67 18.30Q113.06 18.38 112.48 18.38L112.48 18.38Q111.20 18.38 110.00 17.97Q108.80 17.57 107.87 16.79Q106.93 16.01 106.37 14.86Q105.81 13.71 105.81 12.22L105.81 12.22Q105.81 10.69 106.35 9.47Q106.90 8.25 107.85 7.40Q108.81 6.55 110.12 6.10Q111.42 5.65 112.96 5.65L112.96 5.65Q113.07 5.65 113.37 5.67Q113.66 5.68 114.03 5.72Q114.40 5.77 114.80 5.84Q115.20 5.92 115.52 6.04Q115.85 6.15 116.06 6.32Q116.27 6.48 116.27 6.70L116.27 6.70Q116.27 6.76 116.27 6.83Q116.26 6.89 116.21 6.95L116.21 6.95ZM118.20 0.49L118.20 0.49Q118.44 0.39 118.89 0.29Q119.33 0.20 119.86 0.14Q120.39 0.08 120.94 0.05Q121.50 0.01 121.96 0.01L121.96 0.01Q122.20 0.01 122.39 0.02Q122.58 0.04 122.71 0.09Q122.84 0.15 122.90 0.28Q122.96 0.40 122.96 0.63L122.96 0.63L122.96 7.00Q123.04 6.97 123.28 6.87Q123.52 6.76 123.87 6.61Q124.22 6.46 124.68 6.29Q125.13 6.12 125.65 5.96Q126.16 5.81 126.71 5.72Q127.25 5.63 127.79 5.63L127.79 5.63Q128.85 5.63 129.50 5.90Q130.16 6.18 130.53 6.67Q130.90 7.17 131.03 7.86Q131.16 8.54 131.16 9.35L131.16 9.35L131.16 16.84L133.20 16.84L133.20 17.72Q133.00 17.82 132.65 17.92Q132.30 18.01 131.88 18.08Q131.46 18.15 131.00 18.19Q130.55 18.22 130.13 18.22L130.13 18.22Q129.76 18.22 129.46 18.18Q129.15 18.14 128.92 18.02Q128.70 17.89 128.57 17.68Q128.44 17.46 128.44 17.10L128.44 17.10L128.44 9.59Q128.44 8.99 128.37 8.57Q128.31 8.14 128.13 7.88Q127.95 7.61 127.63 7.48Q127.31 7.36 126.81 7.36L126.81 7.36Q126.32 7.36 125.68 7.46Q125.05 7.56 124.48 7.69Q123.90 7.82 123.47 7.93Q123.05 8.04 122.96 8.05L122.96 8.05L122.96 14.48Q122.96 15.21 123.01 15.76Q123.05 16.31 123.10 16.72Q123.15 17.13 123.21 17.41Q123.27 17.68 123.30 17.85L123.30 17.85Q123.14 17.94 122.93 18.01Q122.72 18.07 122.49 18.12Q122.26 18.18 122.04 18.20Q121.82 18.22 121.63 18.22L121.63 18.22Q121.32 18.22 121.08 18.17Q120.83 18.12 120.64 17.99Q120.46 17.86 120.36 17.64Q120.26 17.43 120.26 17.10L120.26 17.10L120.26 1.38L118.20 1.38L118.20 0.49ZM138.01 11.17L144.08 11.17Q144.15 10.93 144.18 10.70Q144.20 10.46 144.20 10.21L144.20 10.21Q144.20 9.63 144.01 9.05Q143.81 8.47 143.44 8.00Q143.07 7.54 142.53 7.24Q141.98 6.95 141.28 6.95L141.28 6.95Q140.38 6.95 139.78 7.29Q139.17 7.64 138.79 8.22Q138.41 8.80 138.23 9.57Q138.06 10.34 138.01 11.17L138.01 11.17ZM135.28 12.01L135.28 12.01Q135.28 10.62 135.73 9.45Q136.18 8.29 137.03 7.44Q137.88 6.60 139.11 6.12Q140.34 5.65 141.90 5.65L141.90 5.65Q143.07 5.65 144 6.02Q144.93 6.40 145.57 7.03Q146.21 7.66 146.55 8.50Q146.89 9.33 146.89 10.23L146.89 10.23Q146.89 10.65 146.82 11.07Q146.75 11.50 146.55 11.84Q146.36 12.18 145.99 12.39Q145.63 12.61 145.04 12.61L145.04 12.61L138.04 12.61Q138.15 13.66 138.59 14.47Q139.02 15.28 139.70 15.84Q140.38 16.39 141.27 16.68Q142.16 16.96 143.19 16.96L143.19 16.96Q143.89 16.96 144.64 16.83Q145.39 16.71 146.19 16.45L146.19 16.45L146.58 17.24Q146.10 17.57 145.55 17.80Q145.00 18.04 144.41 18.18Q143.82 18.33 143.21 18.40Q142.61 18.47 142.02 18.47L142.02 18.47Q140.73 18.47 139.52 18.06Q138.30 17.66 137.36 16.85Q136.42 16.04 135.85 14.84Q135.28 13.63 135.28 12.01ZM140.75 2.88L142.38 0L144.11 0Q144.22 0 144.36 0.02Q144.49 0.05 144.60 0.11Q144.71 0.16 144.79 0.26Q144.86 0.36 144.86 0.53L144.86 0.53Q144.86 0.82 144.45 1.17L144.45 1.17Q144.34 1.28 144.16 1.45Q143.99 1.62 143.78 1.83Q143.58 2.04 143.36 2.27Q143.13 2.51 142.91 2.73L142.91 2.73Q142.39 3.27 141.81 3.87L141.81 3.87L140.96 3.87Q140.71 3.87 140.61 3.77Q140.51 3.68 140.51 3.55L140.51 3.55Q140.51 3.41 140.58 3.23Q140.66 3.05 140.75 2.88L140.75 2.88Z" transform="translate(0, 52)"></path></svg>